<svg xmlns="http://www.w3.org/2000/svg" xmlns:xlink="http://www.w3.org/1999/xlink" viewBox="0 0 1100 460" width="100%" font-family="'Segoe UI',Helvetica,Arial,sans-serif">
<defs>
<linearGradient id="nbg" x1="0" y1="0" x2="1" y2="1"><stop offset="0" stop-color="#070B14"/><stop offset="1" stop-color="#13243B"/></linearGradient>
<radialGradient id="nnode"><stop offset="0" stop-color="#bfe9ff"/><stop offset="1" stop-color="#4361EE"/></radialGradient>
<linearGradient id="ntitle" x1="0" y1="0" x2="1" y2="0"><stop offset="0" stop-color="#21D07A"><animate attributeName="stop-color" values="#21D07A;#36BCF7;#7209B7;#21D07A" dur="7s" repeatCount="indefinite"/></stop><stop offset="1" stop-color="#36BCF7"><animate attributeName="stop-color" values="#36BCF7;#7209B7;#21D07A;#36BCF7" dur="7s" repeatCount="indefinite"/></stop></linearGradient>
<filter id="ng" x="-80%" y="-80%" width="260%" height="260%"><feGaussianBlur stdDeviation="3.2" result="b"/><feMerge><feMergeNode in="b"/><feMergeNode in="SourceGraphic"/></feMerge></filter>
</defs>
<rect width="1100" height="460" rx="18" fill="url(#nbg)"/>
<g stroke="#16273d" stroke-width="1" opacity="0.6">
<line x1="0" y1="0" x2="0" y2="460"/>
<line x1="44" y1="0" x2="44" y2="460"/>
<line x1="88" y1="0" x2="88" y2="460"/>
<line x1="132" y1="0" x2="132" y2="460"/>
<line x1="176" y1="0" x2="176" y2="460"/>
<line x1="220" y1="0" x2="220" y2="460"/>
<line x1="264" y1="0" x2="264" y2="460"/>
<line x1="308" y1="0" x2="308" y2="460"/>
<line x1="352" y1="0" x2="352" y2="460"/>
<line x1="396" y1="0" x2="396" y2="460"/>
<line x1="440" y1="0" x2="440" y2="460"/>
<line x1="484" y1="0" x2="484" y2="460"/>
<line x1="528" y1="0" x2="528" y2="460"/>
<line x1="572" y1="0" x2="572" y2="460"/>
<line x1="616" y1="0" x2="616" y2="460"/>
<line x1="660" y1="0" x2="660" y2="460"/>
<line x1="704" y1="0" x2="704" y2="460"/>
<line x1="748" y1="0" x2="748" y2="460"/>
<line x1="792" y1="0" x2="792" y2="460"/>
<line x1="836" y1="0" x2="836" y2="460"/>
<line x1="880" y1="0" x2="880" y2="460"/>
<line x1="924" y1="0" x2="924" y2="460"/>
<line x1="968" y1="0" x2="968" y2="460"/>
<line x1="1012" y1="0" x2="1012" y2="460"/>
<line x1="1056" y1="0" x2="1056" y2="460"/>
</g>
<text x="550.0" y="56" text-anchor="middle" font-size="29" font-weight="800" letter-spacing="3" fill="url(#ntitle)" filter="url(#ng)">NEURAL  NETWORK  |  AI / ML</text>
<text x="550.0" y="84" text-anchor="middle" font-size="13" letter-spacing="5" fill="#8aa0bd">SIGNALS  PROPAGATING  THROUGH  LAYERS</text>
<line x1="150" y1="120" x2="417" y2="120" stroke="#27405f" stroke-width="1" opacity="0.22"/>
<line x1="150" y1="120" x2="417" y2="174" stroke="#27405f" stroke-width="1" opacity="0.22"/>
<line x1="150" y1="120" x2="417" y2="228" stroke="#27405f" stroke-width="1" opacity="0.22"/>
<line x1="150" y1="120" x2="417" y2="282" stroke="#27405f" stroke-width="1" opacity="0.22"/>
<line x1="150" y1="120" x2="417" y2="336" stroke="#27405f" stroke-width="1" opacity="0.22"/>
<line x1="150" y1="120" x2="417" y2="390" stroke="#27405f" stroke-width="1" opacity="0.22"/>
<line x1="150" y1="210" x2="417" y2="120" stroke="#27405f" stroke-width="1" opacity="0.22"/>
<line x1="150" y1="210" x2="417" y2="174" stroke="#27405f" stroke-width="1" opacity="0.22"/>
<line x1="150" y1="210" x2="417" y2="228" stroke="#27405f" stroke-width="1" opacity="0.22"/>
<line x1="150" y1="210" x2="417" y2="282" stroke="#27405f" stroke-width="1" opacity="0.22"/>
<line x1="150" y1="210" x2="417" y2="336" stroke="#27405f" stroke-width="1" opacity="0.22"/>
<line x1="150" y1="210" x2="417" y2="390" stroke="#27405f" stroke-width="1" opacity="0.22"/>
<line x1="150" y1="300" x2="417" y2="120" stroke="#27405f" stroke-width="1" opacity="0.22"/>
<line x1="150" y1="300" x2="417" y2="174" stroke="#27405f" stroke-width="1" opacity="0.22"/>
<line x1="150" y1="300" x2="417" y2="228" stroke="#27405f" stroke-width="1" opacity="0.22"/>
<line x1="150" y1="300" x2="417" y2="282" stroke="#27405f" stroke-width="1" opacity="0.22"/>
<line x1="150" y1="300" x2="417" y2="336" stroke="#27405f" stroke-width="1" opacity="0.22"/>
<line x1="150" y1="300" x2="417" y2="390" stroke="#27405f" stroke-width="1" opacity="0.22"/>
<line x1="150" y1="390" x2="417" y2="120" stroke="#27405f" stroke-width="1" opacity="0.22"/>
<line x1="150" y1="390" x2="417" y2="174" stroke="#27405f" stroke-width="1" opacity="0.22"/>
<line x1="150" y1="390" x2="417" y2="228" stroke="#27405f" stroke-width="1" opacity="0.22"/>
<line x1="150" y1="390" x2="417" y2="282" stroke="#27405f" stroke-width="1" opacity="0.22"/>
<line x1="150" y1="390" x2="417" y2="336" stroke="#27405f" stroke-width="1" opacity="0.22"/>
<line x1="150" y1="390" x2="417" y2="390" stroke="#27405f" stroke-width="1" opacity="0.22"/>
<line x1="417" y1="120" x2="683" y2="120" stroke="#27405f" stroke-width="1" opacity="0.22"/>
<line x1="417" y1="120" x2="683" y2="174" stroke="#27405f" stroke-width="1" opacity="0.22"/>
<line x1="417" y1="120" x2="683" y2="228" stroke="#27405f" stroke-width="1" opacity="0.22"/>
<line x1="417" y1="120" x2="683" y2="282" stroke="#27405f" stroke-width="1" opacity="0.22"/>
<line x1="417" y1="120" x2="683" y2="336" stroke="#27405f" stroke-width="1" opacity="0.22"/>
<line x1="417" y1="120" x2="683" y2="390" stroke="#27405f" stroke-width="1" opacity="0.22"/>
<line x1="417" y1="174" x2="683" y2="120" stroke="#27405f" stroke-width="1" opacity="0.22"/>
<line x1="417" y1="174" x2="683" y2="174" stroke="#27405f" stroke-width="1" opacity="0.22"/>
<line x1="417" y1="174" x2="683" y2="228" stroke="#27405f" stroke-width="1" opacity="0.22"/>
<line x1="417" y1="174" x2="683" y2="282" stroke="#27405f" stroke-width="1" opacity="0.22"/>
<line x1="417" y1="174" x2="683" y2="336" stroke="#27405f" stroke-width="1" opacity="0.22"/>
<line x1="417" y1="174" x2="683" y2="390" stroke="#27405f" stroke-width="1" opacity="0.22"/>
<line x1="417" y1="228" x2="683" y2="120" stroke="#27405f" stroke-width="1" opacity="0.22"/>
<line x1="417" y1="228" x2="683" y2="174" stroke="#27405f" stroke-width="1" opacity="0.22"/>
<line x1="417" y1="228" x2="683" y2="228" stroke="#27405f" stroke-width="1" opacity="0.22"/>
<line x1="417" y1="228" x2="683" y2="282" stroke="#27405f" stroke-width="1" opacity="0.22"/>
<line x1="417" y1="228" x2="683" y2="336" stroke="#27405f" stroke-width="1" opacity="0.22"/>
<line x1="417" y1="228" x2="683" y2="390" stroke="#27405f" stroke-width="1" opacity="0.22"/>
<line x1="417" y1="282" x2="683" y2="120" stroke="#27405f" stroke-width="1" opacity="0.22"/>
<line x1="417" y1="282" x2="683" y2="174" stroke="#27405f" stroke-width="1" opacity="0.22"/>
<line x1="417" y1="282" x2="683" y2="228" stroke="#27405f" stroke-width="1" opacity="0.22"/>
<line x1="417" y1="282" x2="683" y2="282" stroke="#27405f" stroke-width="1" opacity="0.22"/>
<line x1="417" y1="282" x2="683" y2="336" stroke="#27405f" stroke-width="1" opacity="0.22"/>
<line x1="417" y1="282" x2="683" y2="390" stroke="#27405f" stroke-width="1" opacity="0.22"/>
<line x1="417" y1="336" x2="683" y2="120" stroke="#27405f" stroke-width="1" opacity="0.22"/>
<line x1="417" y1="336" x2="683" y2="174" stroke="#27405f" stroke-width="1" opacity="0.22"/>
<line x1="417" y1="336" x2="683" y2="228" stroke="#27405f" stroke-width="1" opacity="0.22"/>
<line x1="417" y1="336" x2="683" y2="282" stroke="#27405f" stroke-width="1" opacity="0.22"/>
<line x1="417" y1="336" x2="683" y2="336" stroke="#27405f" stroke-width="1" opacity="0.22"/>
<line x1="417" y1="336" x2="683" y2="390" stroke="#27405f" stroke-width="1" opacity="0.22"/>
<line x1="417" y1="390" x2="683" y2="120" stroke="#27405f" stroke-width="1" opacity="0.22"/>
<line x1="417" y1="390" x2="683" y2="174" stroke="#27405f" stroke-width="1" opacity="0.22"/>
<line x1="417" y1="390" x2="683" y2="228" stroke="#27405f" stroke-width="1" opacity="0.22"/>
<line x1="417" y1="390" x2="683" y2="282" stroke="#27405f" stroke-width="1" opacity="0.22"/>
<line x1="417" y1="390" x2="683" y2="336" stroke="#27405f" stroke-width="1" opacity="0.22"/>
<line x1="417" y1="390" x2="683" y2="390" stroke="#27405f" stroke-width="1" opacity="0.22"/>
<line x1="683" y1="120" x2="950" y2="120" stroke="#27405f" stroke-width="1" opacity="0.22"/>
<line x1="683" y1="120" x2="950" y2="255" stroke="#27405f" stroke-width="1" opacity="0.22"/>
<line x1="683" y1="120" x2="950" y2="390" stroke="#27405f" stroke-width="1" opacity="0.22"/>
<line x1="683" y1="174" x2="950" y2="120" stroke="#27405f" stroke-width="1" opacity="0.22"/>
<line x1="683" y1="174" x2="950" y2="255" stroke="#27405f" stroke-width="1" opacity="0.22"/>
<line x1="683" y1="174" x2="950" y2="390" stroke="#27405f" stroke-width="1" opacity="0.22"/>
<line x1="683" y1="228" x2="950" y2="120" stroke="#27405f" stroke-width="1" opacity="0.22"/>
<line x1="683" y1="228" x2="950" y2="255" stroke="#27405f" stroke-width="1" opacity="0.22"/>
<line x1="683" y1="228" x2="950" y2="390" stroke="#27405f" stroke-width="1" opacity="0.22"/>
<line x1="683" y1="282" x2="950" y2="120" stroke="#27405f" stroke-width="1" opacity="0.22"/>
<line x1="683" y1="282" x2="950" y2="255" stroke="#27405f" stroke-width="1" opacity="0.22"/>
<line x1="683" y1="282" x2="950" y2="390" stroke="#27405f" stroke-width="1" opacity="0.22"/>
<line x1="683" y1="336" x2="950" y2="120" stroke="#27405f" stroke-width="1" opacity="0.22"/>
<line x1="683" y1="336" x2="950" y2="255" stroke="#27405f" stroke-width="1" opacity="0.22"/>
<line x1="683" y1="336" x2="950" y2="390" stroke="#27405f" stroke-width="1" opacity="0.22"/>
<line x1="683" y1="390" x2="950" y2="120" stroke="#27405f" stroke-width="1" opacity="0.22"/>
<line x1="683" y1="390" x2="950" y2="255" stroke="#27405f" stroke-width="1" opacity="0.22"/>
<line x1="683" y1="390" x2="950" y2="390" stroke="#27405f" stroke-width="1" opacity="0.22"/>
<path id="edge0" d="M417,174 L683,120" fill="none" stroke="none"/>
<circle r="3.4" fill="#21D07A" filter="url(#ng)"><animateMotion dur="1.44s" begin="0.56s" repeatCount="indefinite"><mpath xlink:href="#edge0"/></animateMotion><animate attributeName="opacity" values="0;1;1;0" dur="1.44s" begin="0.56s" repeatCount="indefinite"/></circle>
<path id="edge1" d="M683,390 L950,120" fill="none" stroke="none"/>
<circle r="3.4" fill="#FFBA08" filter="url(#ng)"><animateMotion dur="1.90s" begin="1.78s" repeatCount="indefinite"><mpath xlink:href="#edge1"/></animateMotion><animate attributeName="opacity" values="0;1;1;0" dur="1.90s" begin="1.78s" repeatCount="indefinite"/></circle>
<path id="edge2" d="M683,282 L950,120" fill="none" stroke="none"/>
<circle r="3.4" fill="#36BCF7" filter="url(#ng)"><animateMotion dur="2.16s" begin="0.38s" repeatCount="indefinite"><mpath xlink:href="#edge2"/></animateMotion><animate attributeName="opacity" values="0;1;1;0" dur="2.16s" begin="0.38s" repeatCount="indefinite"/></circle>
<path id="edge3" d="M150,300 L417,336" fill="none" stroke="none"/>
<circle r="3.4" fill="#36BCF7" filter="url(#ng)"><animateMotion dur="1.33s" begin="0.72s" repeatCount="indefinite"><mpath xlink:href="#edge3"/></animateMotion><animate attributeName="opacity" values="0;1;1;0" dur="1.33s" begin="0.72s" repeatCount="indefinite"/></circle>
<path id="edge4" d="M417,282 L683,390" fill="none" stroke="none"/>
<circle r="3.4" fill="#F72585" filter="url(#ng)"><animateMotion dur="1.95s" begin="1.13s" repeatCount="indefinite"><mpath xlink:href="#edge4"/></animateMotion><animate attributeName="opacity" values="0;1;1;0" dur="1.95s" begin="1.13s" repeatCount="indefinite"/></circle>
<path id="edge5" d="M683,120 L950,120" fill="none" stroke="none"/>
<circle r="3.4" fill="#FFBA08" filter="url(#ng)"><animateMotion dur="2.13s" begin="1.71s" repeatCount="indefinite"><mpath xlink:href="#edge5"/></animateMotion><animate attributeName="opacity" values="0;1;1;0" dur="2.13s" begin="1.71s" repeatCount="indefinite"/></circle>
<path id="edge6" d="M150,210 L417,228" fill="none" stroke="none"/>
<circle r="3.4" fill="#FFBA08" filter="url(#ng)"><animateMotion dur="1.82s" begin="1.75s" repeatCount="indefinite"><mpath xlink:href="#edge6"/></animateMotion><animate attributeName="opacity" values="0;1;1;0" dur="1.82s" begin="1.75s" repeatCount="indefinite"/></circle>
<path id="edge7" d="M150,120 L417,174" fill="none" stroke="none"/>
<circle r="3.4" fill="#21D07A" filter="url(#ng)"><animateMotion dur="1.39s" begin="2.11s" repeatCount="indefinite"><mpath xlink:href="#edge7"/></animateMotion><animate attributeName="opacity" values="0;1;1;0" dur="1.39s" begin="2.11s" repeatCount="indefinite"/></circle>
<path id="edge8" d="M683,336 L950,120" fill="none" stroke="none"/>
<circle r="3.4" fill="#21D07A" filter="url(#ng)"><animateMotion dur="1.53s" begin="1.19s" repeatCount="indefinite"><mpath xlink:href="#edge8"/></animateMotion><animate attributeName="opacity" values="0;1;1;0" dur="1.53s" begin="1.19s" repeatCount="indefinite"/></circle>
<path id="edge9" d="M417,174 L683,282" fill="none" stroke="none"/>
<circle r="3.4" fill="#FFBA08" filter="url(#ng)"><animateMotion dur="2.07s" begin="1.87s" repeatCount="indefinite"><mpath xlink:href="#edge9"/></animateMotion><animate attributeName="opacity" values="0;1;1;0" dur="2.07s" begin="1.87s" repeatCount="indefinite"/></circle>
<path id="edge10" d="M417,120 L683,390" fill="none" stroke="none"/>
<circle r="3.4" fill="#FFBA08" filter="url(#ng)"><animateMotion dur="1.65s" begin="1.22s" repeatCount="indefinite"><mpath xlink:href="#edge10"/></animateMotion><animate attributeName="opacity" values="0;1;1;0" dur="1.65s" begin="1.22s" repeatCount="indefinite"/></circle>
<path id="edge11" d="M417,120 L683,120" fill="none" stroke="none"/>
<circle r="3.4" fill="#F72585" filter="url(#ng)"><animateMotion dur="1.67s" begin="1.28s" repeatCount="indefinite"><mpath xlink:href="#edge11"/></animateMotion><animate attributeName="opacity" values="0;1;1;0" dur="1.67s" begin="1.28s" repeatCount="indefinite"/></circle>
<path id="edge12" d="M683,390 L950,255" fill="none" stroke="none"/>
<circle r="3.4" fill="#21D07A" filter="url(#ng)"><animateMotion dur="1.91s" begin="2.17s" repeatCount="indefinite"><mpath xlink:href="#edge12"/></animateMotion><animate attributeName="opacity" values="0;1;1;0" dur="1.91s" begin="2.17s" repeatCount="indefinite"/></circle>
<path id="edge13" d="M683,174 L950,390" fill="none" stroke="none"/>
<circle r="3.4" fill="#36BCF7" filter="url(#ng)"><animateMotion dur="2.19s" begin="2.06s" repeatCount="indefinite"><mpath xlink:href="#edge13"/></animateMotion><animate attributeName="opacity" values="0;1;1;0" dur="2.19s" begin="2.06s" repeatCount="indefinite"/></circle>
<path id="edge14" d="M417,336 L683,228" fill="none" stroke="none"/>
<circle r="3.4" fill="#21D07A" filter="url(#ng)"><animateMotion dur="1.59s" begin="1.68s" repeatCount="indefinite"><mpath xlink:href="#edge14"/></animateMotion><animate attributeName="opacity" values="0;1;1;0" dur="1.59s" begin="1.68s" repeatCount="indefinite"/></circle>
<path id="edge15" d="M417,228 L683,336" fill="none" stroke="none"/>
<circle r="3.4" fill="#36BCF7" filter="url(#ng)"><animateMotion dur="1.49s" begin="1.71s" repeatCount="indefinite"><mpath xlink:href="#edge15"/></animateMotion><animate attributeName="opacity" values="0;1;1;0" dur="1.49s" begin="1.71s" repeatCount="indefinite"/></circle>
<circle cx="150" cy="120" r="13" fill="url(#nnode)" stroke="#36BCF7" stroke-width="2.5" filter="url(#ng)"><animate attributeName="r" values="11;15;11" dur="1.8s" begin="0.00s" repeatCount="indefinite"/></circle>
<circle cx="150" cy="210" r="13" fill="url(#nnode)" stroke="#36BCF7" stroke-width="2.5" filter="url(#ng)"><animate attributeName="r" values="11;15;11" dur="1.8s" begin="0.12s" repeatCount="indefinite"/></circle>
<circle cx="150" cy="300" r="13" fill="url(#nnode)" stroke="#36BCF7" stroke-width="2.5" filter="url(#ng)"><animate attributeName="r" values="11;15;11" dur="1.8s" begin="0.24s" repeatCount="indefinite"/></circle>
<circle cx="150" cy="390" r="13" fill="url(#nnode)" stroke="#36BCF7" stroke-width="2.5" filter="url(#ng)"><animate attributeName="r" values="11;15;11" dur="1.8s" begin="0.36s" repeatCount="indefinite"/></circle>
<text x="150" y="424" text-anchor="middle" font-size="12" font-weight="700" letter-spacing="2" fill="#36BCF7">INPUT</text>
<circle cx="417" cy="120" r="13" fill="url(#nnode)" stroke="#4361EE" stroke-width="2.5" filter="url(#ng)"><animate attributeName="r" values="11;15;11" dur="2.0s" begin="0.25s" repeatCount="indefinite"/></circle>
<circle cx="417" cy="174" r="13" fill="url(#nnode)" stroke="#4361EE" stroke-width="2.5" filter="url(#ng)"><animate attributeName="r" values="11;15;11" dur="2.0s" begin="0.37s" repeatCount="indefinite"/></circle>
<circle cx="417" cy="228" r="13" fill="url(#nnode)" stroke="#4361EE" stroke-width="2.5" filter="url(#ng)"><animate attributeName="r" values="11;15;11" dur="2.0s" begin="0.49s" repeatCount="indefinite"/></circle>
<circle cx="417" cy="282" r="13" fill="url(#nnode)" stroke="#4361EE" stroke-width="2.5" filter="url(#ng)"><animate attributeName="r" values="11;15;11" dur="2.0s" begin="0.61s" repeatCount="indefinite"/></circle>
<circle cx="417" cy="336" r="13" fill="url(#nnode)" stroke="#4361EE" stroke-width="2.5" filter="url(#ng)"><animate attributeName="r" values="11;15;11" dur="2.0s" begin="0.73s" repeatCount="indefinite"/></circle>
<circle cx="417" cy="390" r="13" fill="url(#nnode)" stroke="#4361EE" stroke-width="2.5" filter="url(#ng)"><animate attributeName="r" values="11;15;11" dur="2.0s" begin="0.85s" repeatCount="indefinite"/></circle>
<text x="417" y="424" text-anchor="middle" font-size="12" font-weight="700" letter-spacing="2" fill="#4361EE">HIDDEN</text>
<circle cx="683" cy="120" r="13" fill="url(#nnode)" stroke="#7209B7" stroke-width="2.5" filter="url(#ng)"><animate attributeName="r" values="11;15;11" dur="2.2s" begin="0.50s" repeatCount="indefinite"/></circle>
<circle cx="683" cy="174" r="13" fill="url(#nnode)" stroke="#7209B7" stroke-width="2.5" filter="url(#ng)"><animate attributeName="r" values="11;15;11" dur="2.2s" begin="0.62s" repeatCount="indefinite"/></circle>
<circle cx="683" cy="228" r="13" fill="url(#nnode)" stroke="#7209B7" stroke-width="2.5" filter="url(#ng)"><animate attributeName="r" values="11;15;11" dur="2.2s" begin="0.74s" repeatCount="indefinite"/></circle>
<circle cx="683" cy="282" r="13" fill="url(#nnode)" stroke="#7209B7" stroke-width="2.5" filter="url(#ng)"><animate attributeName="r" values="11;15;11" dur="2.2s" begin="0.86s" repeatCount="indefinite"/></circle>
<circle cx="683" cy="336" r="13" fill="url(#nnode)" stroke="#7209B7" stroke-width="2.5" filter="url(#ng)"><animate attributeName="r" values="11;15;11" dur="2.2s" begin="0.98s" repeatCount="indefinite"/></circle>
<circle cx="683" cy="390" r="13" fill="url(#nnode)" stroke="#7209B7" stroke-width="2.5" filter="url(#ng)"><animate attributeName="r" values="11;15;11" dur="2.2s" begin="1.10s" repeatCount="indefinite"/></circle>
<text x="683" y="424" text-anchor="middle" font-size="12" font-weight="700" letter-spacing="2" fill="#7209B7">HIDDEN</text>
<circle cx="950" cy="120" r="13" fill="url(#nnode)" stroke="#21D07A" stroke-width="2.5" filter="url(#ng)"><animate attributeName="r" values="11;15;11" dur="2.4s" begin="0.75s" repeatCount="indefinite"/></circle>
<circle cx="950" cy="255" r="13" fill="url(#nnode)" stroke="#21D07A" stroke-width="2.5" filter="url(#ng)"><animate attributeName="r" values="11;15;11" dur="2.4s" begin="0.87s" repeatCount="indefinite"/></circle>
<circle cx="950" cy="390" r="13" fill="url(#nnode)" stroke="#21D07A" stroke-width="2.5" filter="url(#ng)"><animate attributeName="r" values="11;15;11" dur="2.4s" begin="0.99s" repeatCount="indefinite"/></circle>
<text x="950" y="424" text-anchor="middle" font-size="12" font-weight="700" letter-spacing="2" fill="#21D07A">OUTPUT</text>
</svg>
