<svg xmlns="http://www.w3.org/2000/svg" xmlns:xlink="http://www.w3.org/1999/xlink" viewBox="0 0 1100 460" width="100%" font-family="'Segoe UI',Helvetica,Arial,sans-serif">
<defs>
<linearGradient id="bg" x1="0" y1="0" x2="1" y2="1"><stop offset="0" stop-color="#070B14"/><stop offset="0.55" stop-color="#0D1B2A"/><stop offset="1" stop-color="#13243B"/></linearGradient>
<linearGradient id="wire" x1="0" y1="0" x2="1" y2="0"><stop offset="0" stop-color="#36BCF7"/><stop offset="0.5" stop-color="#4361EE"/><stop offset="1" stop-color="#21D07A"/></linearGradient>
<linearGradient id="title" x1="0" y1="0" x2="1" y2="0"><stop offset="0" stop-color="#36BCF7"><animate attributeName="stop-color" values="#36BCF7;#21D07A;#F72585;#36BCF7" dur="8s" repeatCount="indefinite"/></stop><stop offset="1" stop-color="#F72585"><animate attributeName="stop-color" values="#F72585;#36BCF7;#21D07A;#F72585" dur="8s" repeatCount="indefinite"/></stop></linearGradient>
<filter id="glow" x="-60%" y="-60%" width="220%" height="220%"><feGaussianBlur stdDeviation="4" result="b"/><feMerge><feMergeNode in="b"/><feMergeNode in="SourceGraphic"/></feMerge></filter>
<filter id="soft" x="-80%" y="-80%" width="260%" height="260%"><feGaussianBlur stdDeviation="7"/></filter>
</defs>
<rect width="1100" height="460" rx="18" fill="url(#bg)"/>
<g stroke="#1c2f49" stroke-width="1" opacity="0.5">
<line x1="0" y1="0" x2="0" y2="460"/>
<line x1="40" y1="0" x2="40" y2="460"/>
<line x1="80" y1="0" x2="80" y2="460"/>
<line x1="120" y1="0" x2="120" y2="460"/>
<line x1="160" y1="0" x2="160" y2="460"/>
<line x1="200" y1="0" x2="200" y2="460"/>
<line x1="240" y1="0" x2="240" y2="460"/>
<line x1="280" y1="0" x2="280" y2="460"/>
<line x1="320" y1="0" x2="320" y2="460"/>
<line x1="360" y1="0" x2="360" y2="460"/>
<line x1="400" y1="0" x2="400" y2="460"/>
<line x1="440" y1="0" x2="440" y2="460"/>
<line x1="480" y1="0" x2="480" y2="460"/>
<line x1="520" y1="0" x2="520" y2="460"/>
<line x1="560" y1="0" x2="560" y2="460"/>
<line x1="600" y1="0" x2="600" y2="460"/>
<line x1="640" y1="0" x2="640" y2="460"/>
<line x1="680" y1="0" x2="680" y2="460"/>
<line x1="720" y1="0" x2="720" y2="460"/>
<line x1="760" y1="0" x2="760" y2="460"/>
<line x1="800" y1="0" x2="800" y2="460"/>
<line x1="840" y1="0" x2="840" y2="460"/>
<line x1="880" y1="0" x2="880" y2="460"/>
<line x1="920" y1="0" x2="920" y2="460"/>
<line x1="960" y1="0" x2="960" y2="460"/>
<line x1="1000" y1="0" x2="1000" y2="460"/>
<line x1="1040" y1="0" x2="1040" y2="460"/>
<line x1="1080" y1="0" x2="1080" y2="460"/>
<line x1="0" y1="0" x2="1100" y2="0"/>
<line x1="0" y1="40" x2="1100" y2="40"/>
<line x1="0" y1="80" x2="1100" y2="80"/>
<line x1="0" y1="120" x2="1100" y2="120"/>
<line x1="0" y1="160" x2="1100" y2="160"/>
<line x1="0" y1="200" x2="1100" y2="200"/>
<line x1="0" y1="240" x2="1100" y2="240"/>
<line x1="0" y1="280" x2="1100" y2="280"/>
<line x1="0" y1="320" x2="1100" y2="320"/>
<line x1="0" y1="360" x2="1100" y2="360"/>
<line x1="0" y1="400" x2="1100" y2="400"/>
<line x1="0" y1="440" x2="1100" y2="440"/>
</g>
<circle cx="683" cy="97" r="1.5" fill="#36BCF7" opacity="0.5"><animate attributeName="opacity" values="0;0.7;0" dur="5.6s" begin="3.3s" repeatCount="indefinite"/></circle>
<circle cx="212" cy="207" r="2" fill="#21D07A" opacity="0.5"><animate attributeName="opacity" values="0;0.7;0" dur="3.2s" begin="0.1s" repeatCount="indefinite"/></circle>
<circle cx="908" cy="234" r="1" fill="#4361EE" opacity="0.5"><animate attributeName="opacity" values="0;0.7;0" dur="4.0s" begin="0.2s" repeatCount="indefinite"/></circle>
<circle cx="273" cy="134" r="2" fill="#36BCF7" opacity="0.5"><animate attributeName="opacity" values="0;0.7;0" dur="5.5s" begin="2.3s" repeatCount="indefinite"/></circle>
<circle cx="832" cy="45" r="1" fill="#21D07A" opacity="0.5"><animate attributeName="opacity" values="0;0.7;0" dur="3.2s" begin="1.2s" repeatCount="indefinite"/></circle>
<circle cx="315" cy="296" r="1" fill="#21D07A" opacity="0.5"><animate attributeName="opacity" values="0;0.7;0" dur="5.3s" begin="0.4s" repeatCount="indefinite"/></circle>
<circle cx="404" cy="210" r="1" fill="#36BCF7" opacity="0.5"><animate attributeName="opacity" values="0;0.7;0" dur="5.2s" begin="2.3s" repeatCount="indefinite"/></circle>
<circle cx="441" cy="274" r="2" fill="#F72585" opacity="0.5"><animate attributeName="opacity" values="0;0.7;0" dur="5.1s" begin="1.9s" repeatCount="indefinite"/></circle>
<circle cx="948" cy="205" r="1.5" fill="#21D07A" opacity="0.5"><animate attributeName="opacity" values="0;0.7;0" dur="4.0s" begin="2.8s" repeatCount="indefinite"/></circle>
<circle cx="519" cy="61" r="2" fill="#4361EE" opacity="0.5"><animate attributeName="opacity" values="0;0.7;0" dur="4.2s" begin="3.5s" repeatCount="indefinite"/></circle>
<circle cx="939" cy="167" r="2" fill="#36BCF7" opacity="0.5"><animate attributeName="opacity" values="0;0.7;0" dur="6.9s" begin="2.0s" repeatCount="indefinite"/></circle>
<circle cx="357" cy="407" r="1.5" fill="#4361EE" opacity="0.5"><animate attributeName="opacity" values="0;0.7;0" dur="3.6s" begin="1.7s" repeatCount="indefinite"/></circle>
<circle cx="178" cy="411" r="2" fill="#F72585" opacity="0.5"><animate attributeName="opacity" values="0;0.7;0" dur="5.3s" begin="1.4s" repeatCount="indefinite"/></circle>
<circle cx="737" cy="324" r="1.5" fill="#4361EE" opacity="0.5"><animate attributeName="opacity" values="0;0.7;0" dur="5.3s" begin="0.3s" repeatCount="indefinite"/></circle>
<circle cx="211" cy="158" r="1.5" fill="#36BCF7" opacity="0.5"><animate attributeName="opacity" values="0;0.7;0" dur="5.8s" begin="0.2s" repeatCount="indefinite"/></circle>
<circle cx="654" cy="351" r="2" fill="#4361EE" opacity="0.5"><animate attributeName="opacity" values="0;0.7;0" dur="7.0s" begin="1.1s" repeatCount="indefinite"/></circle>
<circle cx="810" cy="362" r="1.5" fill="#4361EE" opacity="0.5"><animate attributeName="opacity" values="0;0.7;0" dur="3.1s" begin="1.4s" repeatCount="indefinite"/></circle>
<circle cx="259" cy="272" r="1" fill="#F72585" opacity="0.5"><animate attributeName="opacity" values="0;0.7;0" dur="3.9s" begin="0.5s" repeatCount="indefinite"/></circle>
<circle cx="527" cy="223" r="1.5" fill="#4361EE" opacity="0.5"><animate attributeName="opacity" values="0;0.7;0" dur="6.7s" begin="0.3s" repeatCount="indefinite"/></circle>
<circle cx="939" cy="225" r="2" fill="#21D07A" opacity="0.5"><animate attributeName="opacity" values="0;0.7;0" dur="4.1s" begin="3.3s" repeatCount="indefinite"/></circle>
<circle cx="590" cy="381" r="1.5" fill="#4361EE" opacity="0.5"><animate attributeName="opacity" values="0;0.7;0" dur="6.9s" begin="3.8s" repeatCount="indefinite"/></circle>
<circle cx="329" cy="62" r="1" fill="#21D07A" opacity="0.5"><animate attributeName="opacity" values="0;0.7;0" dur="3.6s" begin="0.0s" repeatCount="indefinite"/></circle>
<circle cx="393" cy="154" r="1.5" fill="#4361EE" opacity="0.5"><animate attributeName="opacity" values="0;0.7;0" dur="3.0s" begin="2.1s" repeatCount="indefinite"/></circle>
<circle cx="672" cy="84" r="2" fill="#36BCF7" opacity="0.5"><animate attributeName="opacity" values="0;0.7;0" dur="6.4s" begin="1.8s" repeatCount="indefinite"/></circle>
<circle cx="823" cy="223" r="1.5" fill="#4361EE" opacity="0.5"><animate attributeName="opacity" values="0;0.7;0" dur="4.6s" begin="2.5s" repeatCount="indefinite"/></circle>
<circle cx="147" cy="117" r="1" fill="#4361EE" opacity="0.5"><animate attributeName="opacity" values="0;0.7;0" dur="6.9s" begin="0.6s" repeatCount="indefinite"/></circle>
<text x="550.0" y="58" text-anchor="middle" font-size="30" font-weight="800" letter-spacing="3" fill="url(#title)" filter="url(#glow)">DATA  ENGINEERING  PIPELINE</text>
<text x="550.0" y="86" text-anchor="middle" font-size="13" letter-spacing="5" fill="#8aa0bd">RAW  DATA  -&gt;  REAL-TIME  DECISIONS</text>
<path id="wire0" d="M121,210 C162,170 162,250 204,210" fill="none" stroke="#22364f" stroke-width="6"/>
<path d="M121,210 C162,170 162,250 204,210" fill="none" stroke="url(#wire)" stroke-width="3" stroke-linecap="round" stroke-dasharray="10 16" opacity="0.9"><animate attributeName="stroke-dashoffset" values="52;0" dur="1.1s" repeatCount="indefinite"/></path>
<circle r="5" fill="#36BCF7" filter="url(#glow)"><animateMotion dur="1.8s" begin="0.00s" repeatCount="indefinite"><mpath xlink:href="#wire0"/></animateMotion><animate attributeName="opacity" values="0;1;1;0" dur="1.8s" begin="0.00s" repeatCount="indefinite"/></circle>
<circle r="5" fill="#36BCF7" filter="url(#glow)"><animateMotion dur="1.8s" begin="0.90s" repeatCount="indefinite"><mpath xlink:href="#wire0"/></animateMotion><animate attributeName="opacity" values="0;1;1;0" dur="1.8s" begin="0.90s" repeatCount="indefinite"/></circle>
<path id="wire1" d="M276,210 C318,170 318,250 359,210" fill="none" stroke="#22364f" stroke-width="6"/>
<path d="M276,210 C318,170 318,250 359,210" fill="none" stroke="url(#wire)" stroke-width="3" stroke-linecap="round" stroke-dasharray="10 16" opacity="0.9"><animate attributeName="stroke-dashoffset" values="52;0" dur="1.1s" repeatCount="indefinite"/></path>
<circle r="5" fill="#4361EE" filter="url(#glow)"><animateMotion dur="1.8s" begin="0.28s" repeatCount="indefinite"><mpath xlink:href="#wire1"/></animateMotion><animate attributeName="opacity" values="0;1;1;0" dur="1.8s" begin="0.28s" repeatCount="indefinite"/></circle>
<circle r="5" fill="#4361EE" filter="url(#glow)"><animateMotion dur="1.8s" begin="1.18s" repeatCount="indefinite"><mpath xlink:href="#wire1"/></animateMotion><animate attributeName="opacity" values="0;1;1;0" dur="1.8s" begin="1.18s" repeatCount="indefinite"/></circle>
<path id="wire2" d="M431,210 C472,170 472,250 514,210" fill="none" stroke="#22364f" stroke-width="6"/>
<path d="M431,210 C472,170 472,250 514,210" fill="none" stroke="url(#wire)" stroke-width="3" stroke-linecap="round" stroke-dasharray="10 16" opacity="0.9"><animate attributeName="stroke-dashoffset" values="52;0" dur="1.1s" repeatCount="indefinite"/></path>
<circle r="5" fill="#7209B7" filter="url(#glow)"><animateMotion dur="1.8s" begin="0.56s" repeatCount="indefinite"><mpath xlink:href="#wire2"/></animateMotion><animate attributeName="opacity" values="0;1;1;0" dur="1.8s" begin="0.56s" repeatCount="indefinite"/></circle>
<circle r="5" fill="#7209B7" filter="url(#glow)"><animateMotion dur="1.8s" begin="1.46s" repeatCount="indefinite"><mpath xlink:href="#wire2"/></animateMotion><animate attributeName="opacity" values="0;1;1;0" dur="1.8s" begin="1.46s" repeatCount="indefinite"/></circle>
<path id="wire3" d="M586,210 C628,170 628,250 669,210" fill="none" stroke="#22364f" stroke-width="6"/>
<path d="M586,210 C628,170 628,250 669,210" fill="none" stroke="url(#wire)" stroke-width="3" stroke-linecap="round" stroke-dasharray="10 16" opacity="0.9"><animate attributeName="stroke-dashoffset" values="52;0" dur="1.1s" repeatCount="indefinite"/></path>
<circle r="5" fill="#F72585" filter="url(#glow)"><animateMotion dur="1.8s" begin="0.84s" repeatCount="indefinite"><mpath xlink:href="#wire3"/></animateMotion><animate attributeName="opacity" values="0;1;1;0" dur="1.8s" begin="0.84s" repeatCount="indefinite"/></circle>
<circle r="5" fill="#F72585" filter="url(#glow)"><animateMotion dur="1.8s" begin="1.74s" repeatCount="indefinite"><mpath xlink:href="#wire3"/></animateMotion><animate attributeName="opacity" values="0;1;1;0" dur="1.8s" begin="1.74s" repeatCount="indefinite"/></circle>
<path id="wire4" d="M741,210 C782,170 782,250 824,210" fill="none" stroke="#22364f" stroke-width="6"/>
<path d="M741,210 C782,170 782,250 824,210" fill="none" stroke="url(#wire)" stroke-width="3" stroke-linecap="round" stroke-dasharray="10 16" opacity="0.9"><animate attributeName="stroke-dashoffset" values="52;0" dur="1.1s" repeatCount="indefinite"/></path>
<circle r="5" fill="#36BCF7" filter="url(#glow)"><animateMotion dur="1.8s" begin="1.12s" repeatCount="indefinite"><mpath xlink:href="#wire4"/></animateMotion><animate attributeName="opacity" values="0;1;1;0" dur="1.8s" begin="1.12s" repeatCount="indefinite"/></circle>
<circle r="5" fill="#36BCF7" filter="url(#glow)"><animateMotion dur="1.8s" begin="2.02s" repeatCount="indefinite"><mpath xlink:href="#wire4"/></animateMotion><animate attributeName="opacity" values="0;1;1;0" dur="1.8s" begin="2.02s" repeatCount="indefinite"/></circle>
<path id="wire5" d="M896,210 C938,170 938,250 979,210" fill="none" stroke="#22364f" stroke-width="6"/>
<path d="M896,210 C938,170 938,250 979,210" fill="none" stroke="url(#wire)" stroke-width="3" stroke-linecap="round" stroke-dasharray="10 16" opacity="0.9"><animate attributeName="stroke-dashoffset" values="52;0" dur="1.1s" repeatCount="indefinite"/></path>
<circle r="5" fill="#21D07A" filter="url(#glow)"><animateMotion dur="1.8s" begin="1.40s" repeatCount="indefinite"><mpath xlink:href="#wire5"/></animateMotion><animate attributeName="opacity" values="0;1;1;0" dur="1.8s" begin="1.40s" repeatCount="indefinite"/></circle>
<circle r="5" fill="#21D07A" filter="url(#glow)"><animateMotion dur="1.8s" begin="2.30s" repeatCount="indefinite"><mpath xlink:href="#wire5"/></animateMotion><animate attributeName="opacity" values="0;1;1;0" dur="1.8s" begin="2.30s" repeatCount="indefinite"/></circle>
<circle cx="85" cy="210" r="64" fill="#36BCF7" opacity="0.18" filter="url(#soft)"><animate attributeName="r" values="60;72;60" dur="2.4s" begin="0.0s" repeatCount="indefinite"/><animate attributeName="opacity" values="0.30;0.08;0.30" dur="2.4s" begin="0.0s" repeatCount="indefinite"/></circle>
<path d="M130.0,236.0 L85.0,262.0 L40.0,236.0 L40.0,184.0 L85.0,158.0 L130.0,184.0 Z" fill="#0D1B2A" stroke="#36BCF7" stroke-width="2.5" filter="url(#glow)"/>
<g transform="translate(85,204)" stroke-linecap="round"><circle r="14" fill="none" stroke="#fff" stroke-width="1.6"/><ellipse rx="6" ry="14" fill="none" stroke="#fff" stroke-width="1.6"/><line x1="-14" y1="0" x2="14" y2="0" stroke="#fff" stroke-width="1.6"/></g>
<text x="85" y="238" text-anchor="middle" font-size="11" font-weight="700" fill="#36BCF7">SOURCES</text>
<text x="85" y="292" text-anchor="middle" font-size="11" fill="#9fb3cc">APIs | IoT | Web</text>
<text x="85" y="308" text-anchor="middle" font-size="9" letter-spacing="2" fill="#56708f">01</text>
<circle cx="240" cy="210" r="64" fill="#4361EE" opacity="0.18" filter="url(#soft)"><animate attributeName="r" values="60;72;60" dur="2.4s" begin="0.3s" repeatCount="indefinite"/><animate attributeName="opacity" values="0.30;0.08;0.30" dur="2.4s" begin="0.3s" repeatCount="indefinite"/></circle>
<path d="M285.0,236.0 L240.0,262.0 L195.0,236.0 L195.0,184.0 L240.0,158.0 L285.0,184.0 Z" fill="#0D1B2A" stroke="#4361EE" stroke-width="2.5" filter="url(#glow)"/>
<g transform="translate(240,204)" stroke-linecap="round"><path d="M-10,-8 L6,-8 M-10,0 L10,0 M-10,8 L2,8" stroke="#fff" stroke-width="2.4" stroke-linecap="round" fill="none"/><path d="M6,-13 L13,-4 L4,-4 Z" fill="#fff"/></g>
<text x="240" y="238" text-anchor="middle" font-size="11" font-weight="700" fill="#4361EE">INGEST</text>
<text x="240" y="292" text-anchor="middle" font-size="11" fill="#9fb3cc">Stream | Batch</text>
<text x="240" y="308" text-anchor="middle" font-size="9" letter-spacing="2" fill="#56708f">02</text>
<circle cx="395" cy="210" r="64" fill="#7209B7" opacity="0.18" filter="url(#soft)"><animate attributeName="r" values="60;72;60" dur="2.4s" begin="0.6s" repeatCount="indefinite"/><animate attributeName="opacity" values="0.30;0.08;0.30" dur="2.4s" begin="0.6s" repeatCount="indefinite"/></circle>
<path d="M440.0,236.0 L395.0,262.0 L350.0,236.0 L350.0,184.0 L395.0,158.0 L440.0,184.0 Z" fill="#0D1B2A" stroke="#7209B7" stroke-width="2.5" filter="url(#glow)"/>
<g transform="translate(395,204)" stroke-linecap="round"><path d="M-13,-6 L0,-12 L13,-6 L0,0 Z M-13,1 L0,7 L13,1 M-13,8 L0,14 L13,8" stroke="#fff" stroke-width="1.8" fill="none" stroke-linejoin="round"/></g>
<text x="395" y="238" text-anchor="middle" font-size="11" font-weight="700" fill="#7209B7">LAKE</text>
<text x="395" y="292" text-anchor="middle" font-size="11" fill="#9fb3cc">Raw storage</text>
<text x="395" y="308" text-anchor="middle" font-size="9" letter-spacing="2" fill="#56708f">03</text>
<circle cx="550" cy="210" r="64" fill="#F72585" opacity="0.18" filter="url(#soft)"><animate attributeName="r" values="60;72;60" dur="2.4s" begin="0.9s" repeatCount="indefinite"/><animate attributeName="opacity" values="0.30;0.08;0.30" dur="2.4s" begin="0.9s" repeatCount="indefinite"/></circle>
<path d="M595.0,236.0 L550.0,262.0 L505.0,236.0 L505.0,184.0 L550.0,158.0 L595.0,184.0 Z" fill="#0D1B2A" stroke="#F72585" stroke-width="2.5" filter="url(#glow)"/>
<g transform="translate(550,204)" stroke-linecap="round"><path d="M-5,-12 L-5,-3 L-12,10 a3,3 0 0 0 3,4 L9,14 a3,3 0 0 0 3,-4 L5,-3 L5,-12 M-8,-12 L8,-12" stroke="#fff" stroke-width="1.8" fill="none" stroke-linejoin="round"/></g>
<text x="550" y="238" text-anchor="middle" font-size="11" font-weight="700" fill="#F72585">TRANSFORM</text>
<text x="550" y="292" text-anchor="middle" font-size="11" fill="#9fb3cc">ETL | dbt</text>
<text x="550" y="308" text-anchor="middle" font-size="9" letter-spacing="2" fill="#56708f">04</text>
<circle cx="705" cy="210" r="64" fill="#36BCF7" opacity="0.18" filter="url(#soft)"><animate attributeName="r" values="60;72;60" dur="2.4s" begin="1.2s" repeatCount="indefinite"/><animate attributeName="opacity" values="0.30;0.08;0.30" dur="2.4s" begin="1.2s" repeatCount="indefinite"/></circle>
<path d="M750.0,236.0 L705.0,262.0 L660.0,236.0 L660.0,184.0 L705.0,158.0 L750.0,184.0 Z" fill="#0D1B2A" stroke="#36BCF7" stroke-width="2.5" filter="url(#glow)"/>
<g transform="translate(705,204)" stroke-linecap="round"><path d="M0,-13 L12,-6 L12,7 L0,14 L-12,7 L-12,-6 Z M0,-13 L0,1 M0,1 L12,-6 M0,1 L-12,-6" stroke="#fff" stroke-width="1.6" fill="none" stroke-linejoin="round"/></g>
<text x="705" y="238" text-anchor="middle" font-size="11" font-weight="700" fill="#36BCF7">WAREHOUSE</text>
<text x="705" y="292" text-anchor="middle" font-size="11" fill="#9fb3cc">Modeled</text>
<text x="705" y="308" text-anchor="middle" font-size="9" letter-spacing="2" fill="#56708f">05</text>
<circle cx="860" cy="210" r="64" fill="#21D07A" opacity="0.18" filter="url(#soft)"><animate attributeName="r" values="60;72;60" dur="2.4s" begin="1.5s" repeatCount="indefinite"/><animate attributeName="opacity" values="0.30;0.08;0.30" dur="2.4s" begin="1.5s" repeatCount="indefinite"/></circle>
<path d="M905.0,236.0 L860.0,262.0 L815.0,236.0 L815.0,184.0 L860.0,158.0 L905.0,184.0 Z" fill="#0D1B2A" stroke="#21D07A" stroke-width="2.5" filter="url(#glow)"/>
<g transform="translate(860,204)" stroke-linecap="round"><path d="M-2,-12 a8,8 0 0 0 -8,8 a6,6 0 0 0 -1,10 a7,7 0 0 0 9,5 M2,-12 a8,8 0 0 1 8,8 a6,6 0 0 1 1,10 a7,7 0 0 1 -9,5 M0,-12 L0,14" stroke="#fff" stroke-width="1.7" fill="none"/></g>
<text x="860" y="238" text-anchor="middle" font-size="11" font-weight="700" fill="#21D07A">AI / ML</text>
<text x="860" y="292" text-anchor="middle" font-size="11" fill="#9fb3cc">Models</text>
<text x="860" y="308" text-anchor="middle" font-size="9" letter-spacing="2" fill="#56708f">06</text>
<circle cx="1015" cy="210" r="64" fill="#FFBA08" opacity="0.18" filter="url(#soft)"><animate attributeName="r" values="60;72;60" dur="2.4s" begin="1.8s" repeatCount="indefinite"/><animate attributeName="opacity" values="0.30;0.08;0.30" dur="2.4s" begin="1.8s" repeatCount="indefinite"/></circle>
<path d="M1060.0,236.0 L1015.0,262.0 L970.0,236.0 L970.0,184.0 L1015.0,158.0 L1060.0,184.0 Z" fill="#0D1B2A" stroke="#FFBA08" stroke-width="2.5" filter="url(#glow)"/>
<g transform="translate(1015,204)" stroke-linecap="round"><path d="M0,-14 L3,-3 L14,0 L3,3 L0,14 L-3,3 L-14,0 L-3,-3 Z" fill="#fff"/></g>
<text x="1015" y="238" text-anchor="middle" font-size="11" font-weight="700" fill="#FFBA08">INSIGHTS</text>
<text x="1015" y="292" text-anchor="middle" font-size="11" fill="#9fb3cc">Decisions</text>
<text x="1015" y="308" text-anchor="middle" font-size="9" letter-spacing="2" fill="#56708f">07</text>
</svg>
